<svg viewBox="0 0 482 261" fill="none" xmlns="http://www.w3.org/2000/svg">
<path d="M452.64 0H29.36C21.7059 0 14.3652 1.96415 8.9529 5.46036C3.5406 8.95658 0.5 13.6985 0.5 18.6429V242.357C0.5 247.302 3.5406 252.043 8.9529 255.54C14.3652 259.036 21.7059 261 29.36 261H452.64C460.294 261 467.635 259.036 473.047 255.54C478.459 252.043 481.5 247.302 481.5 242.357V18.6429C481.5 13.6985 478.459 8.95658 473.047 5.46036C467.635 1.96415 460.294 0 452.64 0ZM29.36 12.4286H452.64C455.191 12.4286 457.638 13.0833 459.442 14.2487C461.246 15.4141 462.26 16.9947 462.26 18.6429V193.264L383.16 142.167C380.478 140.429 377.292 139.05 373.784 138.109C370.276 137.168 366.515 136.684 362.717 136.684C358.919 136.684 355.158 137.168 351.65 138.109C348.142 139.05 344.956 140.429 342.275 142.167L287.368 177.635L174.766 104.882C172.085 103.144 168.899 101.765 165.391 100.824C161.883 99.8827 158.122 99.3983 154.324 99.3983C150.525 99.3983 146.764 99.8827 143.256 100.824C139.748 101.765 136.562 103.144 133.881 104.882L19.74 178.661V18.6429C19.74 16.9947 20.7535 15.4141 22.5576 14.2487C24.3617 13.0833 26.8086 12.4286 29.36 12.4286ZM19.74 242.357V196.278L147.614 113.675C148.507 113.097 149.568 112.639 150.736 112.326C151.904 112.013 153.156 111.852 154.42 111.852C155.684 111.852 156.936 112.013 158.104 112.326C159.272 112.639 160.333 113.097 161.226 113.675L370.052 248.571H29.36C26.8086 248.571 24.3617 247.917 22.5576 246.751C20.7535 245.586 19.74 244.005 19.74 242.357ZM452.64 248.571H397.325L301.125 186.429L356.031 150.961C356.925 150.383 357.986 149.924 359.153 149.612C360.321 149.299 361.573 149.138 362.837 149.138C364.102 149.138 365.353 149.299 366.521 149.612C367.689 149.924 368.75 150.383 369.643 150.961L462.26 210.835V242.357C462.26 244.005 461.246 245.586 459.442 246.751C457.638 247.917 455.191 248.571 452.64 248.571ZM289.1 87C289.1 84.5419 290.228 82.1389 292.342 80.0951C294.457 78.0512 297.462 76.4582 300.977 75.5175C304.493 74.5768 308.361 74.3307 312.094 74.8102C315.826 75.2898 319.254 76.4735 321.945 78.2117C324.635 79.9498 326.468 82.1644 327.21 84.5753C327.953 86.9862 327.572 89.4852 326.115 91.7562C324.659 94.0272 322.193 95.9683 319.029 97.334C315.865 98.6996 312.145 99.4286 308.34 99.4286C303.237 99.4286 298.343 98.1191 294.735 95.7883C291.127 93.4575 289.1 90.2963 289.1 87Z" fill="#ACACAC"/>
</svg>
